# xmcd
#
# Track frame offsets:
#	150
#	13719
#	26928
#	40685
#	54962
#	69178
#	80667
#	91174
#	103930
#	116418
#	127956
#
# Disc length: 1866 seconds
#
# Revision: 1
# Processed by: cddbd v1.5.2PL0 Copyright (c) Steve Scherf et al.
# Submitted via: EasyCDDAExtractor 12.0.1.1
#
DISCID=8407480b
DTITLE=Don Williams - Visions [Cassette]
DYEAR=1977
DGENRE=Country
TTITLE0=I'll Forgive But I'll Never Forget
TTITLE1=I'm Getting Good At Missing You
TTITLE2=Missing You, Missing You
TTITLE3=I'll Need Someone To Hold Me (When I Cry)
TTITLE4=Cup O'Tea
TTITLE5=Time On My Hands
TTITLE6=In The Morning
TTITLE7=Some Broken Hearts Never Mend
TTITLE8=Fallin' In Love Again
TTITLE9=We Can Sing
TTITLE10=Expert At Everything
EXTD=
EXTT0=
EXTT1=
EXTT2=
EXTT3=
EXTT4=
EXTT5=
EXTT6=
EXTT7=
EXTT8=
EXTT9=
EXTT10=
PLAYORDER=
